# xmcd CD database file
#
# Track frame offsets:
#	150
#	13382
#	28830
#	45003
#	56497
#	69334
#	83851
#	94253
#	107571
#	119124
#	129612
#	145973
#	158720
#	170192
#
# Disc length: 2426 seconds
#
# Revision: 0
# Processed by: cddbd v1.5.1PL0 Copyright (c) Steve Scherf et al.
# Submitted via: CDex 1.51
#
DISCID=c309780e
DTITLE=Bluey Francis - Australia Through my Grandad's Eyes
DYEAR=2004
DGENRE=Country
TTITLE0=The Gahn
TTITLE1=The Blue Dog in the Ute
TTITLE2=Where the Bushmen Lived the Stories
TTITLE3=Dorothy
TTITLE4=Treasures in a Tin
TTITLE5=Australia Through my Grandad's Eyes
TTITLE6=Ode to Roo
TTITLE7=Old Memories
TTITLE8=My Land Downunder
TTITLE9=He's been a Drover too
TTITLE10=Mothers of the Outback
TTITLE11=Trumby's Mate
TTITLE12=So Long Slim
TTITLE13=One Last Look
EXTD=YEAR: 2004
EXTT0=
EXTT1=
EXTT2=
EXTT3=
EXTT4=
EXTT5=
EXTT6=
EXTT7=
EXTT8=
EXTT9=
EXTT10=
EXTT11=
EXTT12=
EXTT13=
PLAYORDER=
